<?xml version="1.0" encoding="utf-8"?>
<!-- Generator: Adobe Illustrator 25.0.0, SVG Export Plug-In . SVG Version: 6.00 Build 0)  -->
<svg version="1.1" id="Outline" xmlns="http://www.w3.org/2000/svg" xmlns:xlink="http://www.w3.org/1999/xlink" x="0px" y="0px"
	 viewBox="0 0 512 512" style="enable-background:new 0 0 512 512;" xml:space="preserve">
<style type="text/css">
	.st0{fill:#FFFFFF;}
</style>
<path class="st0" d="M488,16H296c-4.4,0-8,3.6-8,8v40h-32v-8c0-4.4-3.6-8-8-8H24c-4.4,0-8,3.6-8,8v64c0,4.4,3.6,8,8,8h224
	c4.4,0,8-3.6,8-8v-8h32v38.1l-15.2,30.3c-2,4-0.4,8.8,3.6,10.7c1.1,0.6,2.3,0.8,3.6,0.8h40v296c0,4.4,3.6,8,8,8h160c4.4,0,8-3.6,8-8
	V24C496,19.6,492.4,16,488,16z M240,112H32V64h208V112z M288,96h-32V80h32V96z M480,480H336v-32h144V480z M480,432H336v-96h144V432z
	 M392,256v-8c0-4.4,3.6-8,8-8h24v8c0,4.4-3.6,8-8,8H392z M416,272v8c0,4.4-3.6,8-8,8s-8-3.6-8-8v-8H416z M408,304
	c6.7,0,13.2-2.8,17.7-7.8c3.7,0.8,6.3,4.1,6.3,7.8v16h-48v-16c0-3.8,2.6-7,6.3-7.8C394.8,301.2,401.3,304,408,304z M480,320h-32v-16
	c0-10.2-6.4-19.3-16-22.6c0-0.5,0-0.9,0-1.4v-14.1c5.1-4.5,8-11,8-17.9v-16c0-4.4-3.6-8-8-8h-32c-13.2,0-24,10.8-24,24v16
	c0,4.4,3.6,8,8,8v8c0,0.5,0,0.9,0,1.4c-9.6,3.4-16,12.5-16,22.6v16h-32V192h144V320z M480,176H292.9l8-16H480V176z M480,144H304V32
	h176V144z"/>
<path class="st0" d="M328,128h128c4.4,0,8-3.6,8-8s-3.6-8-8-8h-8.6c-3.6-24.6-22.9-43.8-47.4-47.4V56c0-4.4-3.6-8-8-8s-8,3.6-8,8
	v8.6c-24.6,3.6-43.8,22.9-47.4,47.4H328c-4.4,0-8,3.6-8,8S323.6,128,328,128z M392,80c19,0,35.4,13.4,39.2,32h-78.4
	C356.6,93.4,373,80,392,80z"/>
<path class="st0" d="M297,313c9.4-9.4,9.3-24.6,0-34c-4.5-4.5-10.6-7-16.9-7h-15.8l-8.3-41.6c-0.2-1.2-0.7-2.3-1.4-3.2L240,208
	c-7.6-10-19.4-16-32-16h-96c-12.6,0-24.4,6-32,16l-14.4,19.2c-0.7,1-1.2,2.1-1.4,3.2L55.8,272H40c-13.3,0-24,10.7-24,24
	s10.7,24,24,24h3.1l-26.2,52.4c-0.6,1.1-0.8,2.3-0.8,3.6v48c0,10.2,6.4,19.2,16,22.6V472c0,13.2,10.8,24,24,24h32
	c13.2,0,24-10.8,24-24v-24h96v24c0,13.2,10.8,24,24,24h32c13.2,0,24-10.8,24-24v-25.4c9.6-3.4,16-12.5,16-22.6v-48
	c0-1.2-0.3-2.5-0.8-3.6L276.9,320h3.1C286.4,320,292.5,317.5,297,313z M92.8,217.6c4.5-6,11.7-9.6,19.2-9.6h96
	c7.5,0,14.7,3.6,19.2,9.6l4.8,6.4H88L92.8,217.6z M78.6,240h162.9l12.8,64H65.8L78.6,240z M40,304c-4.4,0-8-3.6-8-8s3.6-8,8-8h12.6
	l-3.2,16H40z M32,384h40c4.4,0,8,3.6,8,8v8H32V384z M96,472c0,4.4-3.6,8-8,8H56c-4.4,0-8-3.6-8-8v-24h48V472z M120,432H40
	c-4.4,0-8-3.6-8-8v-8h56c4.4,0,8-3.6,8-8v-8h24V432z M184,432h-48v-32h48V432z M272,472c0,4.4-3.6,8-8,8h-32c-4.4,0-8-3.6-8-8v-24
	h48V472z M288,424c0,4.4-3.6,8-8,8h-80v-32h24v8c0,4.4,3.6,8,8,8h56V424z M288,400h-48v-8c0-4.4,3.6-8,8-8h40V400z M283.1,368H248
	c-10.2,0-19.2,6.4-22.6,16H94.6c-3.4-9.6-12.5-16-22.6-16H36.9l24-48H259L283.1,368z M270.6,304l-3.2-16H280c4.4,0,8,3.6,8,8
	s-3.6,8-8,8H270.6z"/>
</svg>
