<?xml version="1.0" encoding="utf-8"?>
<!-- Generator: Adobe Illustrator 25.0.0, SVG Export Plug-In . SVG Version: 6.00 Build 0)  -->
<svg version="1.1" id="_x31_-outline-expand" xmlns="http://www.w3.org/2000/svg" xmlns:xlink="http://www.w3.org/1999/xlink"
	 x="0px" y="0px" viewBox="0 0 512 512" style="enable-background:new 0 0 512 512;" xml:space="preserve">
<style type="text/css">
	.st0{fill:#FFFFFF;}
</style>
<path class="st0" d="M488,160H384V24c0-4.4-3.6-8-8-8H136c-4.4,0-8,3.6-8,8v136H24c-4.4,0-8,3.6-8,8v320c0,4.4,3.6,8,8,8h464
	c4.4,0,8-3.6,8-8V168C496,163.6,492.4,160,488,160z M32,176h96v304H32V176z M280,400v80h-48v-80H280z M368,480h-72v-80h16v-16H200
	v16h16v80h-72V32h224V480z M480,480h-96V176h96V480z"/>
<path class="st0" d="M408,256h48c4.4,0,8-3.6,8-8v-48c0-4.4-3.6-8-8-8h-48c-4.4,0-8,3.6-8,8v48C400,252.4,403.6,256,408,256z
	 M416,208h32v32h-32V208z"/>
<path class="st0" d="M408,336h48c4.4,0,8-3.6,8-8v-48c0-4.4-3.6-8-8-8h-48c-4.4,0-8,3.6-8,8v48C400,332.4,403.6,336,408,336z
	 M416,288h32v32h-32V288z"/>
<path class="st0" d="M408,416h48c4.4,0,8-3.6,8-8v-48c0-4.4-3.6-8-8-8h-48c-4.4,0-8,3.6-8,8v48C400,412.4,403.6,416,408,416z
	 M416,368h32v32h-32V368z"/>
<path class="st0" d="M104,192H56c-4.4,0-8,3.6-8,8v48c0,4.4,3.6,8,8,8h48c4.4,0,8-3.6,8-8v-48C112,195.6,108.4,192,104,192z M96,240
	H64v-32h32V240z"/>
<path class="st0" d="M168,224h32c4.4,0,8-3.6,8-8v-32c0-4.4-3.6-8-8-8h-32c-4.4,0-8,3.6-8,8v32C160,220.4,163.6,224,168,224z
	 M176,192h16v16h-16V192z"/>
<path class="st0" d="M272,176h-32c-4.4,0-8,3.6-8,8v32c0,4.4,3.6,8,8,8h32c4.4,0,8-3.6,8-8v-32C280,179.6,276.4,176,272,176z
	 M264,208h-16v-16h16V208z"/>
<path class="st0" d="M304,184v32c0,4.4,3.6,8,8,8h32c4.4,0,8-3.6,8-8v-32c0-4.4-3.6-8-8-8h-32C307.6,176,304,179.6,304,184z
	 M320,192h16v16h-16V192z"/>
<path class="st0" d="M168,288h32c4.4,0,8-3.6,8-8v-32c0-4.4-3.6-8-8-8h-32c-4.4,0-8,3.6-8,8v32C160,284.4,163.6,288,168,288z
	 M176,256h16v16h-16V256z"/>
<path class="st0" d="M272,240h-32c-4.4,0-8,3.6-8,8v32c0,4.4,3.6,8,8,8h32c4.4,0,8-3.6,8-8v-32C280,243.6,276.4,240,272,240z
	 M264,272h-16v-16h16V272z"/>
<path class="st0" d="M344,240h-32c-4.4,0-8,3.6-8,8v32c0,4.4,3.6,8,8,8h32c4.4,0,8-3.6,8-8v-32C352,243.6,348.4,240,344,240z
	 M336,272h-16v-16h16V272z"/>
<path class="st0" d="M168,352h32c4.4,0,8-3.6,8-8v-32c0-4.4-3.6-8-8-8h-32c-4.4,0-8,3.6-8,8v32C160,348.4,163.6,352,168,352z
	 M176,320h16v16h-16V320z"/>
<path class="st0" d="M272,304h-32c-4.4,0-8,3.6-8,8v32c0,4.4,3.6,8,8,8h32c4.4,0,8-3.6,8-8v-32C280,307.6,276.4,304,272,304z
	 M264,336h-16v-16h16V336z"/>
<path class="st0" d="M344,304h-32c-4.4,0-8,3.6-8,8v32c0,4.4,3.6,8,8,8h32c4.4,0,8-3.6,8-8v-32C352,307.6,348.4,304,344,304z
	 M336,336h-16v-16h16V336z"/>
<path class="st0" d="M104,272H56c-4.4,0-8,3.6-8,8v48c0,4.4,3.6,8,8,8h48c4.4,0,8-3.6,8-8v-48C112,275.6,108.4,272,104,272z M96,320
	H64v-32h32V320z"/>
<path class="st0" d="M104,352H56c-4.4,0-8,3.6-8,8v48c0,4.4,3.6,8,8,8h48c4.4,0,8-3.6,8-8v-48C112,355.6,108.4,352,104,352z M96,400
	H64v-32h32V400z"/>
<path class="st0" d="M208,128h24v24c0,4.4,3.6,8,8,8h32c4.4,0,8-3.6,8-8v-24h24c4.4,0,8-3.6,8-8V88c0-4.4-3.6-8-8-8h-24V56
	c0-4.4-3.6-8-8-8h-32c-4.4,0-8,3.6-8,8v24h-24c-4.4,0-8,3.6-8,8v32C200,124.4,203.6,128,208,128z M216,96h24c4.4,0,8-3.6,8-8V64h16
	v24c0,4.4,3.6,8,8,8h24v16h-24c-4.4,0-8,3.6-8,8v24h-16v-24c0-4.4-3.6-8-8-8h-24V96z"/>
<path class="st0" d="M336,448h16v16h-16V448z"/>
<path class="st0" d="M336,416h16v16h-16V416z"/>
<path class="st0" d="M336,384h16v16h-16V384z"/>
</svg>
